<svg xmlns="http://www.w3.org/2000/svg" xmlns:xlink="http://www.w3.org/1999/xlink" version="1.1" id="Layer_1" x="0px" y="0px" viewBox="0 0 40 40" style="enable-background:new 0 0 40 40;" xml:space="preserve">
<g>
	<path style="fill:#98CCFD;" d="M25.511,21.5c-0.127-0.611,0.524-3.568,0.919-5.364c0.435-1.978,1.045-2.679,1.435-2.679   c0.646,0,1.636,1.588,1.636,3.544c0,2.212-1.476,4.5-3.945,4.5C25.538,21.5,25.523,21.5,25.511,21.5z"/>
	<path style="fill:#4788C7;" d="M27.877,13.964C28.226,14.111,29,15.387,29,17c0,1.814-1.097,3.685-2.987,3.964   c0.101-1.067,0.628-3.463,0.905-4.721C27.312,14.452,27.772,14.038,27.877,13.964 M27.864,12.956c-0.704,0-1.432,0.841-1.923,3.072   C24.713,21.609,24.8,22,25.555,22C28.32,22,30,19.474,30,17C30,14.994,28.961,12.956,27.864,12.956L27.864,12.956z"/>
</g>
<g>
	<path style="fill:#B6DCFE;" d="M14,35.5c-0.261,0-0.611-0.578-0.843-0.96c-0.325-0.535-0.631-1.04-1.154-1.04H10   c-0.626,0-1.33-0.537-1.646-0.854L8,32.293l-0.354,0.354C7.253,33.04,6.585,33.5,6,33.5l-1.413,0.003L4.006,33.5   c-0.532,0-0.838,0.505-1.163,1.04C2.611,34.922,2.261,35.5,2,35.5c-0.082,0-0.5-0.435-0.5-2.5c0-2.003,1.374-3.697,3.674-4.53   l0.35-0.127l-0.021-0.372c-0.005-0.087-0.003-0.173-0.001-0.264l0.002-0.178c0-7.671,1.596-13.3,4.879-17.208l0.218-0.26   L10.44,9.763C9.487,7.991,8.14,7.028,7.248,6.392C6.952,6.18,6.583,5.916,6.523,5.805C6.474,5.664,6.459,5.623,6.738,5.372   c1.333-1.198,2.997-1.831,4.814-1.831c1.826,0,3.649,0.657,5.134,1.849l0.245,0.197l0.284-0.136   c2.818-1.35,5.351-1.951,8.213-1.951c5.426,0,9.071,3.014,9.071,7.5v0.407l0.398,0.083C37.457,12.021,38.5,12.749,38.5,14   c0,1.204-1.095,2.5-3.5,2.5h-8.5V17c0,0.751-0.217,4.5-4.5,4.5c-0.916,0-1.717-0.215-2.45-0.658   c-0.042-0.125,0.167-0.534,0.306-0.804C20.143,19.477,20.5,18.78,20.5,18v-0.835l-0.736,0.394   c-4.887,2.616-8.084,6.179-9.246,10.306l-0.116,0.412l0.389,0.178C12.638,29.298,14.5,31.031,14.5,33   C14.5,35.055,14.099,35.5,14,35.5z"/>
	<path style="fill:#4788C7;" d="M25.429,4C30.555,4,34,6.813,34,11v0.813l0.796,0.166C37.612,12.565,38,13.297,38,14   c0,0.963-0.939,2-3,2h-5.429H27h-1v1c0,0.938-0.288,4-4,4c-0.686,0-1.299-0.134-1.863-0.407c0.051-0.108,0.112-0.226,0.164-0.327   C20.596,19.689,21,18.9,21,18v-1.669l-1.472,0.788c-5.01,2.681-8.292,6.35-9.491,10.611l-0.232,0.824l0.779,0.356   C12.284,29.687,14,31.253,14,33c0,0.871-0.072,1.399-0.145,1.71c-0.1-0.147-0.201-0.313-0.271-0.429   C13.22,33.681,12.807,33,11.987,33h0c-0.182,0.002-0.372,0.003-0.574,0.003l-0.61-0.001L10,33c-0.38,0-0.95-0.364-1.293-0.707   L8,31.586l-0.707,0.707C6.942,32.644,6.385,33,6,33l-0.803,0.002l-0.61,0.001c-0.202,0-0.392-0.001-0.59-0.003   c-0.804,0-1.217,0.681-1.581,1.281c-0.069,0.114-0.167,0.275-0.265,0.42C2.073,34.367,2,33.823,2,33c0-1.81,1.219-3.29,3.345-4.06   l0.701-0.254l-0.044-0.745C5.998,27.867,6,27.794,6.002,27.717l0.002-0.188c0-7.549,1.558-13.073,4.762-16.886l0.436-0.519   l-0.321-0.598C9.873,7.652,8.412,6.608,7.539,5.985C7.406,5.889,7.254,5.781,7.134,5.689c1.229-1.079,2.755-1.648,4.419-1.648   c1.713,0,3.425,0.618,4.821,1.739l0.491,0.394l0.567-0.272C20.179,4.587,22.645,4,25.429,4 M25.429,3C22.424,3,19.797,3.66,17,5   c-1.595-1.28-3.532-1.959-5.447-1.959c-1.845,0-3.67,0.63-5.148,1.959C6.078,5.293,5.897,5.536,6.056,5.983   C6.287,6.631,8.608,7.411,10,10c-3.358,3.996-4.996,9.683-4.996,17.529c0,0.171-0.009,0.318,0,0.471C2.601,28.87,1,30.677,1,33   c0,0.723,0.047,3,1,3c0.956,0,1.44-2,1.997-2C3.998,34,3.999,34,4,34c0.186,0.002,0.38,0.003,0.587,0.003C5,34.003,5.462,34,6,34   c0.819,0,1.627-0.627,2-1c0.313,0.313,1.149,1,2,1c0.538,0,1,0.003,1.413,0.003c0.207,0,0.401-0.001,0.587-0.003   c0.001,0,0.002,0,0.003,0c0.557,0,1.041,2,1.997,2c0.969,0,1-2.277,1-3c0-2.139-1.898-4.039-4-5c1.235-4.39,4.683-7.69,9-10   c0,1.47-1.579,2.744-0.708,3.27C20.106,21.762,21.01,22,22,22c4.609,0,5-4.01,5-5c0.565,0,2.006,0,2.571,0H35c2.587,0,4-1.452,4-3   c0-1.887-1.92-2.567-4-3C35,6.123,30.927,3,25.429,3L25.429,3z"/>
</g>
<circle style="fill:#4788C7;" cx="29.5" cy="10.5" r="1.5"/>
</svg>